<svg width="1162" height="220" viewBox="0 0 1162 220" fill="none" xmlns="http://www.w3.org/2000/svg">
<path fill-rule="evenodd" clip-rule="evenodd" d="M109.84 0C140.18 0 167.64 12.3 187.51 32.17C207.39 52.05 219.69 79.51 219.68 109.84C219.68 140.17 207.39 167.63 187.51 187.51C167.63 207.39 140.17 219.68 109.84 219.68C79.51 219.68 52.05 207.39 32.17 187.51C12.29 167.63 0 140.17 0 109.84C0 79.51 12.29 52.05 32.17 32.17C52.05 12.3 79.5 0 109.84 0ZM195.7 154.73C202.88 141.04 206.69 125.74 206.69 109.84C206.69 83.98 196.61 59.66 178.32 41.37C160.99 24.03 138.24 14.09 113.9 13.09L125.69 100.69L195.7 154.73ZM105.78 13.09C81.44 14.09 58.69 24.04 41.36 41.37C23.07 59.66 13 83.98 13 109.84C13 125.74 16.81 141.05 23.99 154.74L94 100.7L105.78 13.09ZM109.84 206.68C135.71 206.68 160.03 196.61 178.32 178.32C183.41 173.23 187.86 167.67 191.63 161.75L109.83 128.14L28.04 161.75C31.82 167.67 36.27 173.23 41.36 178.32C59.65 196.61 83.97 206.68 109.84 206.68ZM322.933 125.737L299.598 62.0402L296.754 136.792V137.939C296.754 144.258 298.61 145.551 308.481 146.264V149.707C301.611 149.139 298.465 148.994 294.452 148.994C290.45 148.994 287.159 149.127 280 149.707V146.264C290.016 145.539 291.45 144.391 291.884 136.792L294.741 66.2084L294.885 65.3506C295.175 61.7623 293.885 59.1767 291.306 58.1739C289.305 57.3161 287.147 56.8811 283.001 56.7362V53.1478C288.437 53.5827 290.872 53.7277 294.741 53.7277C299.755 53.7277 302.901 53.5948 308.337 53.0149L334.95 125.604L361.852 53.0149C368.155 53.5827 371.591 53.7277 375.592 53.7277C379.172 53.7277 381.607 53.5827 386.898 53.1478V56.5912C377.316 57.304 374.592 59.1646 375.026 65.0486L375.17 66.1964L376.605 136.779C376.605 144.246 378.316 145.684 388.477 146.252V149.695C379.75 148.982 375.604 148.692 370.59 148.692C365.299 148.692 361.285 148.982 352.559 149.695V146.252C362.298 145.684 364.443 144.101 364.443 137.359V136.647L363.298 62.3422L339.542 126.316C339.108 127.742 338.541 129.325 337.252 132.913C337.108 133.297 336.978 133.642 336.857 133.965C335.889 136.541 335.434 137.75 332.382 146.542H330.237L326.802 136.357C325.513 132.915 324.224 129.328 322.935 125.742L322.933 125.737ZM429.107 145.974C439.123 145.974 445.572 139.365 447.283 127.174V127.186H452.864C451.152 141.963 441.703 150.71 427.396 150.71C409.786 150.71 398.625 137.082 398.625 115.273C398.625 94.3354 409.931 80.1269 426.673 80.1269C442.848 80.1269 452.285 92.3177 452.719 113.836H410.208C410.497 124.601 411.209 129.76 412.932 134.351C415.945 142.096 421.381 145.974 429.107 145.974ZM426.54 83.8482C417.235 83.8482 411.944 92.1727 410.51 108.665H441.281C440.57 91.8827 435.7 83.8482 426.54 83.8482ZM472.908 94.4683C472.908 85.5759 472.763 85.2859 462.747 85.141H462.759V82.7004C470.34 81.9755 476.487 80.8398 481.646 79.257C482.502 84.851 482.791 87.1466 482.936 92.8855C486.226 84.5731 492.241 79.837 499.677 79.837C506.969 79.837 512.128 84.7181 512.128 91.4598C512.128 95.6161 509.838 98.3466 506.114 98.3466C502.823 98.3466 500.244 96.341 500.244 93.6104C500.244 93.4433 500.244 93.3154 500.251 93.1879C500.275 92.7715 500.377 92.3595 500.81 90.602C500.955 90.1671 500.955 89.7442 500.955 89.3092C500.955 87.3036 499.099 85.8659 496.664 85.8659C489.083 85.8659 484.358 94.9032 484.358 109.1V139.087C484.358 145.249 485.937 146.397 494.663 146.832V149.707C487.07 148.994 483.358 148.849 478.633 148.849C473.764 148.849 470.039 148.994 462.602 149.707V146.832C471.329 146.397 472.908 145.249 472.908 139.087V94.4683ZM565.209 78.5321H567.777V102.201H564.631C563.486 97.1867 562.775 94.8911 561.196 92.0156C558.484 86.8445 553.47 83.6911 548.034 83.6911C537.162 83.6911 531.003 95.459 531.003 115.829C531.003 135.91 536.584 146.095 547.6 146.095C556.471 146.095 561.774 139.788 563.486 127.162H569.211C567.487 142.506 559.34 150.831 546.455 150.831C529.713 150.831 518.552 136.779 518.552 115.974C518.552 94.4562 530.147 79.8249 546.889 79.8249C552.903 79.8249 556.905 81.5526 561.485 85.8538L565.209 78.5321ZM611.288 145.974C621.304 145.974 627.752 139.365 629.464 127.174V127.186H635.032C633.321 141.963 623.871 150.71 609.564 150.71C591.967 150.71 580.806 137.082 580.806 115.273C580.806 94.3354 592.112 80.1269 608.853 80.1269C625.028 80.1269 634.466 92.3177 634.9 113.836H592.389C592.678 124.601 593.389 129.76 595.113 134.351C598.126 142.096 603.562 145.974 611.288 145.974ZM608.721 83.8482C599.416 83.8482 594.124 92.1727 592.69 108.665H623.461C622.75 91.8827 617.881 83.8482 608.721 83.8482ZM701.022 134.774C701.022 143.376 701.878 144.234 711.472 144.524H711.448V146.977C701.432 148.269 698.431 148.837 692.561 150.71C691.283 145.406 691.139 144.536 690.705 139.232C686.559 147.267 680.978 151 672.963 151C657.366 151 646.35 136.514 646.35 115.853C646.35 95.1932 657.077 80.7069 672.396 80.7069C680.122 80.7069 684.281 83.2924 689.572 91.8948V66.6434C689.572 59.3217 688.427 58.3189 679.411 58.3189V55.7333C686.004 55.2984 694.731 53.7277 701.022 52V134.774ZM689.717 116.989C689.717 95.604 684.281 84.706 673.686 84.706C663.525 84.706 658.367 95.0361 658.379 115.696C658.379 136.067 663.815 146.965 674.265 146.965C684.425 146.965 689.717 136.647 689.717 116.989ZM750.102 145.974C760.118 145.974 766.566 139.365 768.278 127.174V127.186H773.846C772.135 141.963 762.685 150.71 748.378 150.71C730.769 150.71 719.608 137.082 719.608 115.273C719.608 94.3354 730.914 80.1269 747.655 80.1269C763.83 80.1269 773.268 92.3177 773.702 113.836H731.203C731.492 124.601 732.203 129.76 733.927 134.351C736.94 142.096 742.376 145.974 750.102 145.974ZM747.535 83.8482C738.23 83.8482 732.938 92.1727 731.504 108.665H762.275C761.552 91.8827 756.695 83.8482 747.535 83.8482ZM789.467 150.988H787.056V127.029H790.202C791.058 131.62 791.914 134.061 793.348 137.069C796.205 142.663 802.074 146.252 808.8 146.252C817.104 146.252 823.541 140.658 823.541 133.336C823.541 128.89 821.395 126.014 815.525 123.006C815.436 122.916 813.584 122.054 810.073 120.421C807.924 119.421 805.153 118.132 801.785 116.554C791.335 111.818 788.045 107.662 788.045 99.3373C788.045 88.1494 796.771 80.2598 809.511 80.2598C814.947 80.2598 819.093 81.5526 824.107 84.851L826.542 78.967H828.977V101.222H825.831C824.541 89.7442 819.672 84.2952 810.801 84.2952C803.219 84.2952 797.35 89.4542 797.35 96.051C797.35 100.642 799.495 103.228 805.365 106.236C806.645 106.878 807.575 107.287 810.702 108.663C812.463 109.438 814.919 110.519 818.527 112.12C829.254 116.856 833.123 121.58 833.123 129.905C833.123 141.963 823.529 150.565 810.222 150.565C803.774 150.565 798.338 148.692 792.902 144.681L789.467 150.988ZM877.188 114.114H840.403V107.662H877.188V114.114ZM881.768 57.0261V53.5948H919.386C928.691 53.5948 934.271 55.0326 939.141 58.7659C944.444 63.0671 947.59 69.676 947.59 76.9856C947.59 87.0257 942.299 94.2025 931.993 98.2137C944.866 100.799 952.17 109.402 952.17 121.882C952.17 130.92 947.59 139.667 940.298 144.258C934.573 147.992 928.558 149.284 917.831 149.284H881.768V145.841C892.351 144.971 893.496 143.968 893.496 136.224V66.6434C893.496 58.8867 892.074 57.739 881.768 57.0261ZM905.525 58.0168V97.0417H915.252C923.122 97.0417 926.991 95.8939 930.137 92.3056C933.295 88.8622 934.862 83.8361 934.862 77.2393C934.862 63.9008 929.703 58.0168 917.686 58.0168H905.525ZM919.121 101.488H905.537V137.504C905.537 143.666 906.827 144.814 914.263 144.814H919.555C932.282 144.814 939.442 136.779 939.442 122.438C939.442 115.696 937.586 109.667 934.295 106.224C931.137 102.926 926.557 101.488 919.121 101.488ZM995.247 145.974C1005.26 145.974 1011.7 139.365 1013.42 127.174V127.186H1018.99C1017.28 141.963 1007.83 150.71 993.524 150.71C975.926 150.71 964.765 137.082 964.765 115.273C964.765 94.3354 976.071 80.1269 992.812 80.1269C1008.99 80.1269 1018.43 92.3177 1018.86 113.836H976.36C976.637 124.601 977.361 129.76 979.072 134.351C982.085 142.096 987.521 145.974 995.247 145.974ZM992.68 83.8482C983.375 83.8482 978.084 92.1727 976.649 108.665H1007.42C1006.71 91.8827 1001.84 83.8482 992.68 83.8482ZM1030.89 85.8538H1029.02V83.2682C1037.03 82.1205 1043.18 80.8398 1047.91 78.967C1048.63 81.4076 1049.2 86.1438 1049.49 91.4478C1054.78 83.7032 1060.5 80.2598 1068.81 80.2598C1076.39 80.2598 1082.97 83.7032 1086.55 89.5871C1088.69 93.0305 1089.69 97.9116 1089.69 104.653V139.087C1089.69 145.249 1091.27 146.397 1100 146.832V149.707C1092.84 148.994 1089.27 148.849 1084.26 148.849C1079.55 148.849 1075.82 148.994 1068.81 149.707V146.832C1076.4 146.554 1078.26 145.116 1078.26 139.377V104.231C1078.26 97.6338 1077.68 94.4803 1075.97 91.7498C1073.82 88.4514 1070.1 86.7237 1065.52 86.7237C1060.51 86.7237 1056.07 89.0193 1053.35 92.8976C1051.34 95.6161 1050.63 98.7695 1050.63 104.798V139.365C1050.63 145.104 1052.5 146.53 1059.94 146.82V149.695C1052.93 148.982 1049.21 148.837 1044.48 148.837C1039.61 148.837 1036.03 148.982 1028.89 149.695V146.82C1037.76 146.385 1039.19 145.237 1039.19 139.075V94.7462C1039.19 86.5666 1038.61 85.9988 1030.89 85.8538ZM1157.12 149.26H1107.88L1146.68 85.2739H1130.79C1121.5 85.2739 1119.21 87.2795 1114.2 100.195H1111.2L1114.49 81.5405H1162L1123.07 145.527H1139.81C1147.25 145.527 1149.83 144.234 1153.41 138.64C1155.13 135.632 1156.41 132.901 1157.84 128.6H1160.84L1157.12 149.26Z" fill="#73726C"/>
</svg>
